Coordinates
version=1
nRows=16
nColumns=40
inDegrees=yes

Units are S.I. units (second, meters, Newtons, ...)
If the header above contains a line with 'inDegrees', this indicates whether rotational values are in degrees (yes) or radians (no).

endheader
time	pelvis_tilt	pelvis_list	pelvis_rotation	pelvis_tx	pelvis_ty	pelvis_tz	hip_flexion_r	hip_adduction_r	hip_rotation_r	knee_angle_r	knee_angle_r_beta	ankle_angle_r	subtalar_angle_r	mtp_angle_r	hip_flexion_l	hip_adduction_l	hip_rotation_l	knee_angle_l	knee_angle_l_beta	ankle_angle_l	subtalar_angle_l	mtp_angle_l	lumbar_extension	lumbar_bending	lumbar_rotation	arm_flex_r	arm_add_r	arm_rot_r	elbow_flex_r	pro_sup_r	wrist_flex_r	wrist_dev_r	arm_flex_l	arm_add_l	arm_rot_l	elbow_flex_l	pro_sup_l	wrist_flex_l	wrist_dev_l
      7.50000000	     28.73051156	      1.51098905	   -176.22388675	      0.37710515	      0.81747666	     -0.59403026	     57.32384704	    -14.43243878	    -10.49768861	     26.95922988	      0.47052733	     -0.54790887	      0.00000000	      0.00000000	     58.57200341	    -11.06363305	     -6.81615544	     25.80499576	      0.45038214	     -2.65155040	      0.00000000	      0.00000000	    -44.47331001	     -1.26261860	     -4.82049861	     59.97418480	     -8.78786283	     83.78650164	      8.72222489	     80.66778665	      0.00000000	      0.00000000	     55.38564366	     -9.46392408	      8.90252956	     15.35029690	     30.11999810	      0.00000000	      0.00000000
      7.50500000	     28.65962736	      1.68412939	   -176.09825106	      0.37699165	      0.81776192	     -0.59399059	     57.11603575	    -14.41640346	    -10.77533631	     26.85220038	      0.46865931	     -0.50060104	      0.00000000	      0.00000000	     58.54696288	    -11.03050763	     -6.42018814	     25.76195288	      0.44963090	     -2.71374526	      0.00000000	      0.00000000	    -44.22035392	     -1.03793936	     -4.75812357	     59.78063400	     -8.94514992	     84.08981300	      8.92374616	     80.98449682	      0.00000000	      0.00000000	     55.19521566	     -9.40967679	      8.92050307	     15.25418489	     29.78217311	      0.00000000	      0.00000000
      7.51000000	     28.37063291	      1.60654486	   -176.25505756	      0.37641611	      0.81864480	     -0.59442632	     56.72634573	    -14.29188704	    -10.75907354	     26.70340941	      0.46606242	     -0.48712245	      0.00000000	      0.00000000	     58.09192871	    -11.17143077	     -6.71592474	     25.66345584	      0.44791180	     -2.75388696	      0.00000000	      0.00000000	    -44.23584429	     -1.22878651	     -4.70581671	     59.52760458	     -8.71570174	     83.63933000	      8.59408762	     80.79676082	      0.00000000	      0.00000000	     54.97468329	     -9.51471341	      9.29046819	     15.34436815	     29.48989332	      0.00000000	      0.00000000
      7.51500000	     28.24718347	      1.88938288	   -176.15532911	      0.37621045	      0.81914596	     -0.59436288	     56.40523652	    -14.17298407	    -11.18939779	     26.52425078	      0.46293551	     -0.57521065	      0.00000000	      0.00000000	     58.01980420	    -11.23581609	     -6.26981923	     25.60751487	      0.44693545	     -2.73059298	      0.00000000	      0.00000000	    -44.04310441	     -0.90976935	     -4.54236145	     59.39811548	     -8.95384599	     84.02919750	      8.92042017	     81.30294139	      0.00000000	      0.00000000	     54.85173654	     -9.31605850	      8.70681677	     15.17827027	     28.87691437	      0.00000000	      0.00000000
      7.52000000	     28.04579647	      1.87702327	   -176.25190182	      0.37577162	      0.81973744	     -0.59468998	     56.11923999	    -14.07242176	    -11.25877875	     26.41586332	      0.46104379	     -0.62372346	      0.00000000	      0.00000000	     57.73238452	    -11.33233913	     -6.34803093	     25.55441462	      0.44600867	     -2.75601692	      0.00000000	      0.00000000	    -43.94079996	     -0.99995823	     -4.44728765	     59.15948710	     -8.97822724	     84.05247970	      8.94773715	     81.03206378	      0.00000000	      0.00000000	     54.63350105	     -9.30010767	      8.63548870	     15.14214751	     29.26823348	      0.00000000	      0.00000000
      7.52500000	     27.85576791	      1.87686838	   -176.40041020	      0.37538838	      0.82034587	     -0.59511583	     55.85543467	    -13.91086246	    -11.25639670	     26.29367639	      0.45891123	     -0.67110294	      0.00000000	      0.00000000	     57.47256612	    -11.49293594	     -6.43595960	     25.53805317	      0.44572311	     -2.76314369	      0.00000000	      0.00000000	    -43.83382646	     -1.11517083	     -4.34567599	     58.90758167	     -8.97381997	     84.11460336	      8.97578265	     80.60567990	      0.00000000	      0.00000000	     54.32845489	     -9.42695140	      8.95682027	     15.16737918	     30.78947701	      0.00000000	      0.00000000
      7.53000000	     27.75980631	      1.96286032	   -176.46520477	      0.37511189	      0.82064868	     -0.59534601	     55.70311149	    -13.79588686	    -11.39884857	     26.25652874	      0.45826288	     -0.66440562	      0.00000000	      0.00000000	     57.38695961	    -11.60616559	     -6.33194025	     25.58324954	      0.44651194	     -2.68833482	      0.00000000	      0.00000000	    -43.59553367	     -1.09210863	     -4.23986661	     58.60022413	     -8.82366794	     83.92246029	      8.69099547	     80.43768199	      0.00000000	      0.00000000	     54.07139028	     -9.40973167	      8.81488558	     15.12059494	     31.41645493	      0.00000000	      0.00000000
      7.53500000	     27.53415001	      1.93108332	   -176.57431125	      0.37472266	      0.82125677	     -0.59555506	     55.44331777	    -13.71728021	    -11.42258604	     26.21620413	      0.45755908	     -0.70831896	      0.00000000	      0.00000000	     57.07561160	    -11.68324053	     -6.38500146	     25.54067343	      0.44576884	     -2.69525338	      0.00000000	      0.00000000	    -43.51713233	     -1.19303426	     -4.13992606	     58.34497725	     -8.84881672	     83.68113148	      8.69430457	     80.43898200	      0.00000000	      0.00000000	     53.89130154	     -9.37425549	      8.90398971	     15.03685653	     31.42291077	      0.00000000	      0.00000000
      7.54000000	     27.19969202	      1.86424403	   -176.86040854	      0.37404444	      0.82206431	     -0.59615515	     55.07493172	    -13.48830765	    -11.34136772	     26.13560976	      0.45615244	     -0.84862948	      0.00000000	      0.00000000	     56.61564345	    -11.95087090	     -6.73575068	     25.55920975	      0.44609236	     -2.68178757	      0.00000000	      0.00000000	    -43.54579164	     -1.44375760	     -4.04092622	     58.07971495	     -8.68264194	     82.82599748	      8.55297432	     81.72911971	      0.00000000	      0.00000000	     53.50969552	     -9.52672800	      8.76787570	     15.27879651	     32.11355934	      0.00000000	      0.00000000
      7.54500000	     27.12703339	      1.94343585	   -176.77192108	      0.37392308	      0.82224240	     -0.59598824	     54.93977846	    -13.51283489	    -11.49130117	     26.10205151	      0.45556674	     -0.84323597	      0.00000000	      0.00000000	     56.59878794	    -11.88465067	     -6.39114639	     25.59379792	      0.44669604	     -2.61530944	      0.00000000	      0.00000000	    -43.26533535	     -1.31269769	     -3.96813297	     57.92917404	     -9.01468346	     83.92040788	      8.97326330	     81.18127292	      0.00000000	      0.00000000	     53.34329742	     -9.46480013	      9.26993769	     15.09841810	     31.96709536	      0.00000000	      0.00000000
      7.55000000	     26.82186234	      1.87117172	   -176.85600564	      0.37335593	      0.82290179	     -0.59612366	     54.59829850	    -13.47487075	    -11.49114043	     26.07142853	      0.45503227	     -0.83206699	      0.00000000	      0.00000000	     56.19280084	    -11.91930019	     -6.48308206	     25.56611582	      0.44621290	     -2.61595671	      0.00000000	      0.00000000	    -43.25353237	     -1.42532814	     -3.92973753	     57.65970674	     -8.96865759	     83.84477315	      8.86086690	     80.44841017	      0.00000000	      0.00000000	     53.08975959	     -9.50711846	      9.45752283	     15.10976777	     32.59165368	      0.00000000	      0.00000000
      7.55500000	     26.74863189	      2.11777313	   -176.85295556	      0.37314302	      0.82295097	     -0.59616075	     54.43756102	    -13.29183449	    -11.77480751	     25.99802792	      0.45375119	     -0.92620443	      0.00000000	      0.00000000	     56.28255658	    -12.07135642	     -6.08475586	     25.77527402	      0.44986340	     -2.39872928	      0.00000000	      0.00000000	    -42.92106425	     -1.22552665	     -3.70691361	     56.97939391	     -8.92961352	     81.21991597	      8.80664130	     77.89776746	      0.00000000	      0.00000000	     53.04928671	     -9.37189652	      9.94577016	     14.47697264	     33.54416150	      0.00000000	      0.00000000
      7.56000000	     26.40292441	      1.96131689	   -176.91290271	      0.37247689	      0.82359599	     -0.59626569	     54.08515395	    -13.33547513	    -11.68148042	     26.04633463	      0.45459430	     -0.78841834	      0.00000000	      0.00000000	     55.81222918	    -12.04528294	     -6.28735209	     25.76474362	      0.44967961	     -2.40755117	      0.00000000	      0.00000000	    -42.94399489	     -1.37427119	     -3.77199312	     57.21475625	     -9.16317485	     84.14770183	      9.09259322	     81.09489053	      0.00000000	      0.00000000	     52.55631128	     -9.45296182	      9.36464963	     15.09794634	     32.87803082	      0.00000000	      0.00000000
      7.56500000	     25.92110609	      1.78261374	   -177.08129538	      0.37165810	      0.82457926	     -0.59656360	     53.56801690	    -13.28306704	    -11.50938202	     26.01979890	      0.45413116	     -0.75204139	      0.00000000	      0.00000000	     55.14531684	    -12.11860049	     -6.64048266	     25.73007467	      0.44907452	     -2.37240768	      0.00000000	      0.00000000	    -43.11105544	     -1.62857836	     -3.78576608	     56.91658538	     -8.97947603	     83.81511562	      8.88085941	     80.08438357	      0.00000000	      0.00000000	     52.32204557	     -9.54067603	      9.38540389	     15.09507832	     33.58927991	      0.00000000	      0.00000000
      7.57000000	     25.68532256	      1.82317294	   -177.07932897	      0.37120595	      0.82497818	     -0.59654255	     53.27988966	    -13.22817483	    -11.55719261	     26.01093861	      0.45397652	     -0.67930370	      0.00000000	      0.00000000	     54.92977963	    -12.15838838	     -6.55594142	     25.84222330	      0.45103188	     -2.24976510	      0.00000000	      0.00000000	    -42.97568286	     -1.58073333	     -3.70381447	     56.71137974	     -9.16613830	     84.15776866	      9.09556218	     80.46044910	      0.00000000	      0.00000000	     52.04223367	     -9.48329671	      9.35554758	     15.10955355	     33.83362368	      0.00000000	      0.00000000
      7.57500000	     25.40344999	      1.86312572	   -177.04260059	      0.37069155	      0.82542370	     -0.59650759	     52.95343169	    -13.21569112	    -11.70120907	     26.05088221	      0.45467367	     -0.64891883	      0.00000000	      0.00000000	     54.66087333	    -12.17663022	     -6.46508960	     25.92713769	      0.45251392	     -2.19616041	      0.00000000	      0.00000000	    -42.88047050	     -1.51472906	     -3.69737250	     56.46158593	     -9.23910570	     84.13189469	      9.21658877	     80.71401597	      0.00000000	      0.00000000	     51.75701852	     -9.48333954	      9.30371051	     15.10676817	     33.94294242	      0.00000000	      0.00000000
